name C:\Users\antoi\Documents\MyRepositories\upper-imu-dc\Results\main_tracking\Case_79\ABD01_orientations_groundFrame.mot
datacolumns 13
datarows 43
range 7.88000000 8.30000000
endheader 
time	radius_imu_[0][0]	radius_imu_[0][1]	radius_imu_[0][2]	radius_imu_[1][0]	radius_imu_[1][1]	radius_imu_[1][2]	radius_imu_[2][0]	radius_imu_[2][1]	radius_imu_[2][2]	radius_imu_x	radius_imu_y	radius_imu_z	
          7.88000000	          0.99264843	         -0.05179829	          0.10938932	         -0.12018026	         -0.52894796	          0.84010164	          0.01434543	         -0.84707201	         -0.53128450	         -2.13470289	          0.10960866	          0.05213462	
          7.89000000	          0.99173685	         -0.05363526	          0.11653876	         -0.12742674	         -0.51697635	          0.84646198	          0.01484757	         -0.85431769	         -0.51953906	         -2.12128458	          0.11680418	          0.05402951	
          7.90000000	          0.99078658	         -0.05542829	          0.12357048	         -0.13458714	         -0.50475237	          0.85270825	          0.01510834	         -0.86148288	         -0.50756180	         -2.10770479	          0.12388714	          0.05588547	
          7.91000000	          0.98980546	         -0.05715439	          0.13045506	         -0.14161955	         -0.49228260	          0.85883744	          0.01513442	         -0.86855697	         -0.49535819	         -2.09396549	          0.13082795	          0.05767901	
          7.92000000	          0.98880238	         -0.05878953	          0.13716285	         -0.14848154	         -0.47957619	          0.86484675	          0.01493610	         -0.87552868	         -0.48293524	         -2.08007003	          0.13759662	          0.05938538	
          7.93000000	          0.98778708	         -0.06030898	          0.14366457	         -0.15513104	         -0.46664492	          0.87073353	          0.01452729	         -0.88238616	         -0.47030162	         -2.06602341	          0.14416341	          0.06097894	
          7.94000000	          0.98677000	         -0.06168786	          0.14993193	         -0.16152726	         -0.45350321	          0.87649517	          0.01392550	         -0.88911723	         -0.45746763	         -2.05183229	          0.15049943	          0.06243368	
          7.95000000	          0.98576198	         -0.06290159	          0.15593816	         -0.16763160	         -0.44016799	          0.88212912	          0.01315167	         -0.89570951	         -0.44444516	         -2.03750509	          0.15657716	          0.06372372	
          7.96000000	          0.98477410	         -0.06392652	          0.16165819	         -0.17340822	         -0.42665838	          0.88763293	          0.01222954	         -0.90215078	         -0.43124751	         -2.02305183	          0.16237072	          0.06482396	
          7.97000000	          0.98381733	         -0.06474052	          0.16706922	         -0.17882492	         -0.41299529	          0.89300422	          0.01118524	         -0.90842917	         -0.41788914	         -2.00848398	          0.16785636	          0.06571069	
          7.98000000	          0.98290201	         -0.06532341	          0.17215254	         -0.18385509	         -0.39920093	          0.89824046	          0.01004733	         -0.91453347	         -0.40438543	         -1.99381432	          0.17301442	          0.06636215	
          7.99000000	          0.98203744	         -0.06565749	          0.17689423	         -0.18847870	         -0.38529832	          0.90333880	          0.00884609	         -0.92045331	         -0.39075241	         -1.97905680	          0.17783002	          0.06675909	
          8.00000000	          0.98123161	         -0.06572816	          0.18128521	         -0.19268256	         -0.37131048	          0.90829619	          0.00761246	         -0.92617943	         -0.37700625	         -1.96422597	          0.18229316	          0.06688545	
          8.01000000	          0.98049122	         -0.06552451	          0.18532003	         -0.19645946	         -0.35725953	          0.91310969	          0.00637628	         -0.93170390	         -0.36316274	         -1.94933636	          0.18639753	          0.06672903	
          8.02000000	          0.97982173	         -0.06503963	          0.18899531	         -0.19980666	         -0.34316634	          0.91777675	          0.00516497	         -0.93702012	         -0.34923719	         -1.93440220	          0.19013891	          0.06628180	
          8.03000000	          0.97922693	         -0.06427015	          0.19231215	         -0.20272785	         -0.32905087	          0.92229439	          0.00400448	         -0.94212254	         -0.33524482	         -1.91943809	          0.19351774	          0.06553956	
          8.04000000	          0.97870871	         -0.06321611	          0.19527668	         -0.20523337	         -0.31493249	          0.92665894	          0.00291920	         -0.94700647	         -0.32120122	         -1.90445945	          0.19653955	          0.06450174	
          8.05000000	          0.97826735	         -0.06188127	          0.19789823	         -0.20733855	         -0.30082903	          0.93086660	          0.00193033	         -0.95166832	         -0.30712159	         -1.88948151	          0.19921328	          0.06317182	
          8.06000000	          0.97790185	         -0.06027327	          0.20018767	         -0.20906185	         -0.28675577	          0.93491404	          0.00105465	         -0.95610578	         -0.29301984	         -1.87451823	          0.20154947	          0.06155742	
          8.07000000	          0.97761031	         -0.05840347	          0.20215616	         -0.21042335	         -0.27272538	          0.93879864	          0.00030402	         -0.96031760	         -0.27890860	         -1.85958215	          0.20355904	          0.05967014	
          8.08000000	          0.97738947	         -0.05628592	          0.20381788	         -0.21144677	         -0.25874913	          0.94251745	         -0.00031276	         -0.96430326	         -0.26480015	         -1.84468562	          0.20525609	          0.05752448	
          8.09000000	          0.97723476	         -0.05393671	          0.20519029	         -0.21215937	         -0.24483739	          0.94606715	         -0.00078950	         -0.96806275	         -0.25070678	         -1.82984106	          0.20665813	          0.05513726	
          8.10000000	          0.97714104	         -0.05137386	          0.20629135	         -0.21258912	         -0.23099950	          0.94944463	         -0.00112344	         -0.97159660	         -0.23664061	         -1.81506060	          0.20778326	          0.05252732	
          8.11000000	          0.97710277	         -0.04861699	          0.20713901	         -0.21276384	         -0.21724365	          0.95264723	         -0.00131521	         -0.97490594	         -0.22261331	         -1.80035571	          0.20864963	          0.04971527	
          8.12000000	          0.97711433	         -0.04568696	          0.20775055	         -0.21271040	         -0.20357681	          0.95567294	         -0.00136860	         -0.97799243	         -0.20863591	         -1.78573703	          0.20927477	          0.04672300	
          8.13000000	          0.97716989	         -0.04260534	          0.20814368	         -0.21245551	         -0.19000488	          0.95852011	         -0.00128976	         -0.98085826	         -0.19471879	         -1.77121431	          0.20967669	          0.04357315	
          8.14000000	          0.97726349	         -0.03939406	          0.20833668	         -0.21202567	         -0.17653258	          0.96118747	         -0.00108687	         -0.98350615	         -0.18087140	         -1.75679622	          0.20987402	          0.04028877	
          8.15000000	          0.97738935	         -0.03607528	          0.20834740	         -0.21144614	         -0.16316328	          0.96367436	         -0.00077018	         -0.98593931	         -0.16710203	         -1.74249002	          0.20988497	          0.03689309	
          8.16000000	          0.97754201	         -0.03267121	          0.20819274	         -0.21074037	         -0.14989885	          0.96598076	         -0.00035190	         -0.98816139	         -0.15341756	         -1.72830133	          0.20972685	          0.03340936	
          8.17000000	          0.97771646	         -0.02920396	          0.20788857	         -0.20992976	         -0.13673955	          0.96810732	          0.00015402	         -0.99017646	         -0.13982329	         -1.71423398	          0.20941587	          0.02986068	
          8.18000000	          0.97790816	         -0.02569550	          0.20744969	         -0.20903372	         -0.12368396	          0.97005525	          0.00073214	         -0.99198892	         -0.12632278	         -1.70028989	          0.20896721	          0.02626994	
          8.19000000	          0.97811305	         -0.02216749	          0.20688999	         -0.20806970	         -0.11072891	          0.97182617	          0.00136576	         -0.99360340	         -0.11291777	         -1.68646897	          0.20839510	          0.02265964	
          8.20000000	          0.97832756	         -0.01864122	          0.20622244	         -0.20705323	         -0.09786940	          0.97342208	          0.00203709	         -0.99502467	         -0.09960805	         -1.67276911	          0.20771283	          0.01905186	
          8.21000000	          0.97854863	         -0.01513746	          0.20545906	         -0.20599789	         -0.08509867	          0.97484516	          0.00272761	         -0.99625753	         -0.08639148	         -1.65918613	          0.20693275	          0.01546807	
          8.22000000	          0.97877372	         -0.01167630	          0.20461100	         -0.20491538	         -0.07240834	          0.97609770	          0.00341834	         -0.99730672	         -0.07326403	         -1.64571394	          0.20606628	          0.01192895	
          8.23000000	          0.97900079	         -0.00827683	          0.20368835	         -0.20381541	         -0.05978847	          0.97718198	          0.00409025	         -0.99817675	         -0.06021991	         -1.63234458	          0.20512378	          0.00845416	
          8.24000000	          0.97922830	         -0.00495693	          0.20270020	         -0.20270574	         -0.04722786	          0.97810015	          0.00472472	         -0.99887184	         -0.04725166	         -1.61906843	          0.20411458	          0.00506204	
          8.25000000	          0.97945517	         -0.00173300	          0.20165456	         -0.20159224	         -0.03471421	          0.97885417	          0.00530392	         -0.99939578	         -0.03435037	         -1.60587437	          0.20304689	          0.00176935	
          8.26000000	          0.97968078	          0.00138029	          0.20055837	         -0.20047891	         -0.02223436	          0.97944568	          0.00581120	         -0.99975183	         -0.02150585	         -1.59274997	          0.20192783	         -0.00140891	
          8.27000000	          0.97990485	          0.00437015	          0.19941762	         -0.19936814	         -0.00977449	          0.97987591	          0.00623141	         -0.99994268	         -0.00870680	         -1.57968171	          0.20076357	         -0.00445974	
          8.28000000	          0.98012738	          0.00722575	          0.19823751	         -0.19826095	          0.00267962	          0.98014561	          0.00655109	         -0.99997030	          0.00405896	         -1.56665517	          0.19955941	         -0.00737213	
          8.29000000	          0.98034856	          0.00993823	          0.19702269	         -0.19715737	          0.01514239	          0.98025490	          0.00675861	         -0.99983596	          0.01680422	         -1.55365530	          0.19832015	         -0.01013710	
          8.30000000	          0.98056864	          0.01250060	          0.19577761	         -0.19605687	          0.02762813	          0.98020324	          0.00684416	         -0.99954010	          0.02954211	         -1.54066669	          0.19705035	         -0.01274763	
